<svg width="16" height="15" viewBox="0 0 16 15" fill="none" xmlns="http://www.w3.org/2000/svg">
<g clip-path="url(#clip0_48_157)">
<path d="M15.9946 7.15841C15.9946 7.66272 15.5779 8.05776 15.1057 8.05776H14.2168L14.2363 12.5461C14.2363 12.6218 14.2307 12.6974 14.2224 12.7731V13.2269C14.2224 13.8461 13.7252 14.3476 13.1113 14.3476H12.6668C12.6363 14.3476 12.6057 14.3476 12.5752 14.3448C12.5363 14.3476 12.4974 14.3476 12.4585 14.3476L11.5557 14.3448H10.889C10.2752 14.3448 9.77793 13.8433 9.77793 13.2241V12.5517V10.7586C9.77793 10.2627 9.38071 9.86207 8.88904 9.86207H7.11126C6.6196 9.86207 6.22237 10.2627 6.22237 10.7586V12.5517V13.2241C6.22237 13.8433 5.72515 14.3448 5.11126 14.3448H4.4446H3.55849C3.51682 14.3448 3.47515 14.342 3.43349 14.3392C3.40015 14.342 3.36682 14.3448 3.33349 14.3448H2.88904C2.27515 14.3448 1.77793 13.8433 1.77793 13.2241V10.0862C1.77793 10.061 1.77793 10.033 1.78071 10.0078V8.05496H0.891819C0.391819 8.05496 0.00292969 7.66272 0.00292969 7.1556C0.00292969 6.90345 0.086263 6.67931 0.280707 6.48319L7.40015 0.224138C7.5946 0.0280172 7.81682 0 8.01126 0C8.20571 0 8.42793 0.0560345 8.5946 0.196121L15.689 6.48599C15.9113 6.68211 16.0224 6.90625 15.9946 7.15841Z" fill="#FED326"/>
</g>
<defs>
<clipPath id="clip0_48_157">
<rect width="16" height="14.3448" fill="white"/>
</clipPath>
</defs>
</svg>
