<svg width="16" height="16" viewBox="0 0 16 16" fill="none" xmlns="http://www.w3.org/2000/svg">
<path d="M4.19063 2.63929L0.353125 7.025C0.128124 7.28214 0 7.63571 0 8C0 8.36429 0.128124 8.71786 0.353125 8.975L4.19063 13.3607C4.39062 13.5893 4.65938 13.7143 4.94063 13.7143C5.525 13.7143 6 13.1714 6 12.5036V10.2857H10C10.5531 10.2857 11 9.775 11 9.14286V6.85714C11 6.225 10.5531 5.71429 10 5.71429H6V3.49643C6 2.82857 5.525 2.28571 4.94063 2.28571C4.65938 2.28571 4.39062 2.41429 4.19063 2.63929ZM11 2.28571H13C13.5531 2.28571 14 2.79643 14 3.42857V12.5714C14 13.2036 13.5531 13.7143 13 13.7143H11C10.4469 13.7143 10 14.225 10 14.8571C10 15.4893 10.4469 16 11 16H13C14.6562 16 16 14.4643 16 12.5714V3.42857C16 1.53571 14.6562 0 13 0H11C10.4469 0 10 0.510714 10 1.14286C10 1.775 10.4469 2.28571 11 2.28571Z" fill="#B22B3D"/>
</svg>
