<svg width="24" height="28" viewBox="0 0 24 28" fill="none" xmlns="http://www.w3.org/2000/svg">
<g clip-path="url(#clip0_31_4)">
<path d="M12.0003 0.15387C11.052 0.15387 10.286 0.927307 10.286 1.88464V2.9231C6.37526 3.72358 3.42883 7.21757 3.42883 11.4039V12.4207C3.42883 14.9628 2.50204 17.4183 0.830613 19.3221L0.434185 19.7711C-0.0158151 20.2795 -0.122958 21.0096 0.150256 21.6316C0.423471 22.2536 1.03954 22.6539 1.71454 22.6539H22.286C22.961 22.6539 23.5717 22.2536 23.8503 21.6316C24.1288 21.0096 24.0163 20.2795 23.5663 19.7711L23.1699 19.3221C21.4985 17.4183 20.5717 14.9682 20.5717 12.4207V11.4039C20.5717 7.21757 17.6253 3.72358 13.7145 2.9231V1.88464C13.7145 0.927307 12.9485 0.15387 12.0003 0.15387ZM14.427 26.8348C15.0699 26.1857 15.4288 25.3041 15.4288 24.3846H12.0003H8.57168C8.57168 25.3041 8.93061 26.1857 9.57347 26.8348C10.2163 27.4838 11.0895 27.8462 12.0003 27.8462C12.911 27.8462 13.7842 27.4838 14.427 26.8348Z" fill="#2B69B2"/>
<circle cx="18.4615" cy="3.84618" r="3.69231" fill="#FED326"/>
</g>
<defs>
<clipPath id="clip0_31_4">
<rect width="24" height="27.6923" fill="white" transform="translate(0 0.15387)"/>
</clipPath>
</defs>
</svg>
